<svg width="210" height="231" fill="none" xmlns="http://www.w3.org/2000/svg"><path d="M141.135 216.495c0 4.86-17.28 8.805-38.58 8.805-21.3 0-38.58-3.945-38.58-8.805 0-4.86 17.28-8.805 38.58-8.805 21.3 0 38.58 3.945 38.58 8.805z" fill="#312056"/><path d="M102.645 61.875c-22.62.57-54.375 35.745-56.28 83.265-1.905 47.535 30.405 68.82 55.125 68.82 26.235 0 59.7-15.975 57.795-68.055-1.89-52.095-34.59-84.585-56.64-84.03z" fill="url(#paint0_radial)"/><path opacity=".1" d="M115.005 195.36c-24.21 0-55.83-20.85-53.97-67.365.825-20.52 7.32-38.685 16.23-52.62-16.005 14.22-30.21 40.17-31.455 71.475-1.905 47.535 30.405 68.82 55.125 68.82 19.515 0 43.02-8.835 53.01-34.8-11.205 10.5-25.965 14.49-38.94 14.49z" fill="#000"/><path d="M86.88 116.655c.765-2.235-.045-4.53-1.815-5.13-1.77-.6-3.81.72-4.575 2.955-.765 2.235.045 4.53 1.815 5.13 1.77.6 3.81-.72 4.575-2.955zM62.115 146.73c3.345.48 6.6-2.4 7.275-6.405.675-4.005-1.485-7.65-4.83-8.13-3.345-.48-6.6 2.4-7.275 6.405-.675 4.02 1.485 7.65 4.83 8.13zm88.98-1.755c2.67-.345 4.41-3.9 3.885-7.92-.525-4.02-3.12-7.005-5.79-6.66-2.67.345-4.41 3.9-3.885 7.92.525 4.035 3.12 7.005 5.79 6.66zm-92.49 35.265c-2.145 2.145-3 5.25-2.67 8.655 5.7 9.18 13.32 15.84 21.465 20.175 2.865.015 5.43-.87 7.29-2.73 4.905-4.905 3.045-14.73-4.17-21.93-7.185-7.2-17.01-9.075-21.915-4.17zm64.035.36c-5.535 10.965-5.505 22.905-.825 31.185 17.25-6 33.045-20.505 36.45-48.69-12.03-5.58-27.855 2.13-35.625 17.505zm-57.285-69.525c3.105 2.625 8.535-.39 12.12-6.72 3.585-6.33 3.975-13.575.87-16.185-3.105-2.61-8.535.39-12.12 6.72-3.585 6.315-3.975 13.56-.87 16.185z" fill="url(#paint1_linear)"/><path d="M61.71 94.035c-13.95 23.4-15.51 46.05-15.765 52.365-1.905 47.535 30.405 68.82 55.14 68.82 9.165 0 19.23-1.95 28.35-6.72C92.91 223.035 27.96 188.535 61.71 94.035z" fill="url(#paint2_linear)"/><path d="M101.085 216.72c-6.585 0-13.5-1.47-20.01-4.245-7.08-3.015-13.41-7.395-18.81-13.005-8.73-9.09-18.9-25.68-17.805-53.13.885-22.005 8.22-43.335 20.655-60.075C70.59 78.9 76.89 72.735 83.325 68.46c6.48-4.32 13.005-6.675 18.87-6.825 5.79-.15 12.255 1.86 18.705 5.79 6.54 3.99 12.9 9.885 18.405 17.07 6.015 7.83 10.875 16.92 14.445 26.985 3.945 11.13 6.18 23.115 6.645 35.625.435 11.76-.915 22.335-4.005 31.44-2.805 8.235-7.05 15.36-12.615 21.135-5.61 5.82-12.51 10.26-20.49 13.185-6.915 2.52-14.58 3.855-22.2 3.855zm1.185-152.085c-5.295.135-11.265 2.325-17.28 6.315-6.15 4.095-12.195 10.02-17.46 17.1-12.09 16.26-19.215 37.005-20.07 58.41-1.05 26.4 8.64 42.27 16.965 50.94 9.825 10.23 23.535 16.32 36.66 16.32 15.855 0 30.63-5.88 40.5-16.125 11.265-11.685 16.59-28.635 15.795-50.385-.84-23.16-8.115-44.79-20.46-60.9-10.47-13.65-23.745-21.96-34.65-21.675z" fill="#312056"/><path d="M129.855 82.605c6.42 11.13 5.115 23.91-2.91 28.545-8.025 4.635-19.755-.63-26.175-11.745-6.42-11.115-5.115-23.91 2.91-28.545 8.025-4.635 19.755.615 26.175 11.745z" fill="url(#paint3_linear)"/><path d="M140.76 119.01c-.69-1.095-1.59-4.275-3.165-4.98-3.675-1.65-8.445-.63-8.445-.63-4.08 1.83-7.455 5.295-10.485 8.235-21.06 8.88-38.1 24.525-40.98 27.15 5.235-1.02 20.265-4.095 27.765-7.35.66-.3 1.305-.615 1.935-.945-.57.315-1.215.63-1.935.945-8.325 4.575-11.775 5.61-19.695 8.67 0 0-13.845 11.625-22.365 20.79l-.165.09s-3.165 3.615-3.78 4.68c12.93-4.305 22.215-12.165 27.24-16.185 5.25-2.79 9.225-4.905 9.225-4.905.45.135-.015.03.54.165l-.525 3.645c-.12.87.27 1.725 1.005 2.19l5.82 3.75c-1.275.525-4.32 2.31-5.775 3.63 4.035-1.26 8.88-1.995 14.115-1.98 5.22.015 10.08.765 14.1 2.04-2.01-1.545-5.07-4.125-11.205-4.905l-1.32-.495s-3.78-2.58-5.445-3.735a.61.61 0 01.03-1.02c.42-.255.915-.555 1.17-.735 14.7-2.43 26.43-11.73 27.15-26.97.015-.3.03-.93.03-.93l1.41 1.08 1.755-4.155a2.468 2.468 0 011.395-1.35l4.26-1.635c-.015-.03-1.41-2.1-3.66-4.155zm-32.34 44.025c-.555.06-1.11.12-1.65.21l-1.53-.51-4.815-3.21a1.224 1.224 0 01-.375-1.665l1.14-1.935c.795.18.555.24 1.665.465l-.255 1.35c-.12.66.15 1.335.705 1.725 1.17.84 3.285 2.325 5.115 3.57z" fill="url(#paint4_linear)"/><path d="M71.145 53.28l3.075-7.815c.33-.825 1.5-.825 1.83 0l3.075 7.815 7.815 3.09c.825.33.825 1.5 0 1.83l-7.815 3.075-3.075 7.815c-.33.825-1.5.825-1.83 0l-3.075-7.815L63.33 58.2c-.825-.33-.825-1.5 0-1.83l7.815-3.09z" fill="url(#paint5_radial)"/><path d="M98.7 33.255l2.265-5.73c.24-.615 1.095-.615 1.35 0l2.265 5.73 5.73 2.265c.615.24.615 1.11 0 1.335l-5.73 2.265-2.28 5.73c-.24.615-1.095.615-1.35 0l-2.25-5.73-5.73-2.265a.714.714 0 010-1.335l5.73-2.265z" fill="url(#paint6_radial)"/><path d="M45.855 81.525L47.85 76.5a.636.636 0 011.185 0l1.98 5.025 5.025 1.98c.54.21.54.975 0 1.185l-5.025 1.98-1.98 5.025a.636.636 0 01-1.185 0l-1.98-5.025-5.025-1.98a.636.636 0 010-1.185l5.01-1.98z" fill="url(#paint7_radial)"/><path d="M137.79 65.4l1.53-3.885a.49.49 0 01.915 0l1.53 3.885 3.885 1.53a.49.49 0 010 .915l-3.885 1.53-1.53 3.885a.49.49 0 01-.915 0l-1.53-3.885-3.885-1.53a.49.49 0 010-.915l3.885-1.53z" fill="url(#paint8_radial)"/><path d="M90.285 52.125l.84-2.13a.266.266 0 01.495 0l.84 2.13 2.13.84a.266.266 0 010 .495l-2.13.84-.84 2.13a.266.266 0 01-.495 0l-.84-2.13-2.13-.84a.266.266 0 010-.495l2.13-.84z" fill="url(#paint9_radial)"/><path d="M51.645 52.335l.84-2.13a.266.266 0 01.495 0l.84 2.13 2.13.84a.266.266 0 010 .495l-2.13.84-.84 2.13a.266.266 0 01-.495 0l-.84-2.13-2.13-.84a.266.266 0 010-.495l2.13-.84z" fill="url(#paint10_radial)"/><path d="M127.71 53.25l.84-2.13a.266.266 0 01.495 0l.84 2.13 2.13.84a.266.266 0 010 .495l-2.13.84-.84 2.13a.266.266 0 01-.495 0l-.84-2.13-2.13-.84a.266.266 0 010-.495l2.13-.84z" fill="url(#paint11_radial)"/><defs><radialGradient id="paint0_radial" cx="0" cy="0" r="1" gradientUnits="userSpaceOnUse" gradientTransform="rotate(-90.125 126.363 11.308) scale(110.205 77.1877)"><stop offset=".026" stop-color="#FEF0D9"/><stop offset=".152" stop-color="#FEEBD8"/><stop offset=".312" stop-color="#FEDBD7"/><stop offset=".488" stop-color="#FFC1D4"/><stop offset=".586" stop-color="#FFB0D2"/><stop offset=".717" stop-color="#C484C6"/><stop offset=".848" stop-color="#8F5DBC"/><stop offset=".946" stop-color="#6E45B5"/><stop offset="1" stop-color="#623CB3"/></radialGradient><radialGradient id="paint5_radial" cx="0" cy="0" r="1" gradientUnits="userSpaceOnUse" gradientTransform="translate(75.147 57.272) scale(12.4357)"><stop stop-color="#fff"/><stop offset="1" stop-color="#fff" stop-opacity=".4"/></radialGradient><radialGradient id="paint6_radial" cx="0" cy="0" r="1" gradientUnits="userSpaceOnUse" gradientTransform="matrix(9.12 0 0 9.12 101.629 36.19)"><stop stop-color="#fff"/><stop offset="1" stop-color="#fff" stop-opacity=".4"/></radialGradient><radialGradient id="paint7_radial" cx="0" cy="0" r="1" gradientUnits="userSpaceOnUse" gradientTransform="translate(48.435 84.1) scale(8.007)"><stop stop-color="#fff"/><stop offset="1" stop-color="#fff" stop-opacity=".4"/></radialGradient><radialGradient id="paint8_radial" cx="0" cy="0" r="1" gradientUnits="userSpaceOnUse" gradientTransform="translate(139.776 67.384) scale(6.17287)"><stop stop-color="#fff"/><stop offset="1" stop-color="#fff" stop-opacity=".4"/></radialGradient><radialGradient id="paint9_radial" cx="0" cy="0" r="1" gradientUnits="userSpaceOnUse" gradientTransform="translate(91.373 53.22) scale(3.39562)"><stop stop-color="#fff"/><stop offset="1" stop-color="#fff" stop-opacity=".4"/></radialGradient><radialGradient id="paint10_radial" cx="0" cy="0" r="1" gradientUnits="userSpaceOnUse" gradientTransform="translate(52.742 53.422) scale(3.39562)"><stop stop-color="#fff"/><stop offset="1" stop-color="#fff" stop-opacity=".4"/></radialGradient><radialGradient id="paint11_radial" cx="0" cy="0" r="1" gradientUnits="userSpaceOnUse" gradientTransform="translate(128.801 54.342) scale(3.39562)"><stop stop-color="#fff"/><stop offset="1" stop-color="#fff" stop-opacity=".4"/></radialGradient><linearGradient id="paint1_linear" x1="77.682" y1="175.704" x2="134.345" y2="113.584" gradientUnits="userSpaceOnUse"><stop stop-color="#623CB3"/><stop offset="1" stop-color="#FF3976" stop-opacity=".4"/></linearGradient><linearGradient id="paint2_linear" x1="39.569" y1="125.545" x2="101.517" y2="181.618" gradientUnits="userSpaceOnUse"><stop offset=".296" stop-color="#fff" stop-opacity=".6"/><stop offset="1" stop-color="#FFC6F0" stop-opacity="0"/></linearGradient><linearGradient id="paint3_linear" x1="104.761" y1="81.768" x2="132.805" y2="106.275" gradientUnits="userSpaceOnUse"><stop stop-color="#fff"/><stop offset="1" stop-color="#fff" stop-opacity="0"/></linearGradient><linearGradient id="paint4_linear" x1="60.608" y1="143.098" x2="143.571" y2="146.099" gradientUnits="userSpaceOnUse"><stop stop-color="#623CB3"/><stop offset=".996" stop-color="#FF3976"/></linearGradient></defs></svg>